# xmcd CD database file
#
# Track frame offsets:
#	150
#	12962
#	30995
#	44897
#	59372
#	74907
#	92777
#	104822
#	120977
#	132917
#	146245
#	159525
#	175122
#	197652
#	208900
#	221172
#	234190
#	255792
#	269207
#	286025
#
# Disc length: 3979 seconds
#
# Revision: 2
# Processed by: cddbd v1.5.2PL0 Copyright (c) Steve Scherf et al.
# Submitted via: CDex 1.51
#
DISCID=370f8914
DTITLE=Hank Wiliams Jr. - This is Hank Wiliams Jr.
DYEAR=1990
DGENRE=Country
TTITLE0=There's A Tear In My Beer
TTITLE1=Family Tradition
TTITLE2=The American Way
TTITLE3=Rambling In My Shoes
TTITLE4=Tennessee Stud
TTITLE5=All My Rowdy Friends (Have Settled Down)
TTITLE6=I Don't Care (If Tomorrow Never Comes)
TTITLE7=Leave Them Boys Alone
TTITLE8=Dixie On My Mind
TTITLE9=All My Rowdy Friends Are Coming Over Tonight
TTITLE10=I'm For Love
TTITLE11=Ain't Misbehavin'
TTITLE12=Medley: Harvest Moon - St. Louis Blues
TTITLE13=Mind Your Own Business
TTITLE14=Born To Boogie
TTITLE15=Thanks A Lot
TTITLE16=Big Mamou
TTITLE17=Stoned At The Jukebox
TTITLE18=Almost Persuaded
TTITLE19=This Ain't Dallas
EXTD=YEAR: 1990
EXTT0=
EXTT1=
EXTT2=
EXTT3=
EXTT4=
EXTT5=
EXTT6=
EXTT7=
EXTT8=
EXTT9=
EXTT10=
EXTT11=
EXTT12=
EXTT13=
EXTT14=
EXTT15=
EXTT16=
EXTT17=
EXTT18=
EXTT19=
PLAYORDER=
